<svg width="16" height="16" viewBox="0 0 16 16" fill="none" xmlns="http://www.w3.org/2000/svg">
<rect width="16" height="16" rx="2" fill="black"/>
<path d="M5.81789 9.5V6.58984H6.41471V9.00522H7.66954V9.5H5.81789ZM8.07961 9.5V6.58984H9.21494C9.43587 6.58984 9.6238 6.62893 9.77872 6.70711C9.93365 6.78529 10.0519 6.89542 10.1334 7.03752C10.2149 7.17962 10.2556 7.34604 10.2556 7.5368C10.2556 7.72896 10.2144 7.89426 10.1318 8.0327C10.0492 8.17114 9.9294 8.27727 9.77232 8.35108C9.61523 8.4249 9.42482 8.4618 9.20107 8.4618H8.4322V7.97878H9.10649C9.22779 7.97878 9.32778 7.96212 9.40647 7.92881C9.48515 7.89549 9.54387 7.8461 9.58262 7.78064C9.62137 7.71519 9.64074 7.63391 9.64074 7.5368C9.64074 7.43849 9.62137 7.35566 9.58262 7.28831C9.54387 7.22095 9.485 7.16966 9.40602 7.13444C9.32703 7.09922 9.22659 7.08161 9.10469 7.08161H8.67643V9.5H8.07961ZM9.69875 9.5L8.99141 8.17574H9.6372L10.3605 9.5H9.69875Z" fill="white"/>
</svg>
