<svg width="16" height="16" viewBox="0 0 16 16" fill="none" xmlns="http://www.w3.org/2000/svg">
<rect width="16" height="16" rx="2" fill="black"/>
<path d="M2.78824 11V4.09091H4.249V9.79563H7.211V11H2.78824Z" fill="white"/>
<path d="M8.17838 11V4.09091H10.9042C11.426 4.09091 11.8713 4.18424 12.2402 4.37092C12.6113 4.55534 12.8935 4.81735 13.0869 5.15696C13.2826 5.49432 13.3804 5.89128 13.3804 6.34783C13.3804 6.80664 13.2815 7.20135 13.0836 7.53196C12.8856 7.86032 12.5989 8.11222 12.2233 8.28764C11.85 8.46307 11.3979 8.55078 10.8671 8.55078H9.04201V7.37678H10.631C10.9099 7.37678 11.1415 7.33854 11.3259 7.26207C11.5104 7.18561 11.6475 7.0709 11.7375 6.91797C11.8297 6.76503 11.8758 6.57499 11.8758 6.34783C11.8758 6.11843 11.8297 5.92501 11.7375 5.76758C11.6475 5.61014 11.5092 5.49094 11.3226 5.40998C11.1381 5.32676 10.9054 5.28516 10.6242 5.28516H9.63914V11H8.17838ZM11.9096 7.85582L13.6267 11H12.0141L10.3341 7.85582H11.9096Z" fill="#2563EB"/>
</svg>
