<svg width="196" height="196" viewBox="0 0 196 196" fill="none" xmlns="http://www.w3.org/2000/svg">
<g filter="url(#filter0_d_1_646)">
<rect x="2" y="1.00002" width="192" height="192" rx="24" fill="white" shape-rendering="crispEdges"/>
<rect x="2.5" y="1.50002" width="191" height="191" rx="23.5" stroke="#F5F5F5" shape-rendering="crispEdges"/>
<path d="M61.2349 118V76H69.1549V110.8H88.3549V118H61.2349Z" fill="black"/>
<rect opacity="0.15" x="94.8049" y="61" width="1" height="72" fill="black"/>
<path d="M107.765 118V76H126.005C128.645 76 130.945 76.46 132.905 77.38C134.865 78.3 136.385 79.6 137.465 81.28C138.545 82.96 139.085 84.94 139.085 87.22V87.94C139.085 90.46 138.485 92.5 137.285 94.06C136.085 95.62 134.605 96.76 132.845 97.48V98.56C134.445 98.64 135.685 99.19 136.565 100.21C137.445 101.23 137.885 102.58 137.885 104.26V118H129.965V105.4C129.965 104.44 129.715 103.66 129.215 103.06C128.715 102.46 127.885 102.16 126.725 102.16H115.685V118H107.765ZM115.685 94.96H125.165C127.045 94.96 128.515 94.45 129.575 93.43C130.635 92.41 131.165 91.06 131.165 89.38V88.78C131.165 87.1 130.645 85.75 129.605 84.73C128.565 83.71 127.085 83.2 125.165 83.2H115.685V94.96Z" fill="black"/>
<path d="M136.805 122.84C135.185 122.84 133.825 122.305 132.725 121.236C131.625 120.167 131.075 118.797 131.075 117.126C131.075 115.455 131.625 114.09 132.725 113.03C133.825 111.97 135.185 111.44 136.805 111.44C138.425 111.44 139.775 111.975 140.855 113.044C141.935 114.113 142.475 115.483 142.475 117.154C142.475 118.825 141.935 120.19 140.855 121.25C139.775 122.31 138.425 122.84 136.805 122.84Z" fill="#2563EB"/>
</g>
<defs>
<filter id="filter0_d_1_646" x="0" y="0" width="196" height="196" filterUnits="userSpaceOnUse" color-interpolation-filters="sRGB">
<feFlood flood-opacity="0" result="BackgroundImageFix"/>
<feColorMatrix in="SourceAlpha" type="matrix" values="0 0 0 0 0 0 0 0 0 0 0 0 0 0 0 0 0 0 127 0" result="hardAlpha"/>
<feOffset dy="1"/>
<feGaussianBlur stdDeviation="1"/>
<feComposite in2="hardAlpha" operator="out"/>
<feColorMatrix type="matrix" values="0 0 0 0 0 0 0 0 0 0 0 0 0 0 0 0 0 0 0.05 0"/>
<feBlend mode="normal" in2="BackgroundImageFix" result="effect1_dropShadow_1_646"/>
<feBlend mode="normal" in="SourceGraphic" in2="effect1_dropShadow_1_646" result="shape"/>
</filter>
</defs>
</svg>
