<svg width="536" height="100" viewBox="0 0 536 100" fill="none" xmlns="http://www.w3.org/2000/svg">
<path d="M6.336 81V13.8H19.008V69.48H49.728V81H6.336Z" fill="black"/>
<rect opacity="0.15" x="63.23" width="1" height="96" fill="black"/>
<path d="M86.566 81V13.8H115.75C119.974 13.8 123.654 14.536 126.79 16.008C129.926 17.48 132.358 19.56 134.086 22.248C135.814 24.936 136.678 28.104 136.678 31.752V32.904C136.678 36.936 135.718 40.2 133.798 42.696C131.878 45.192 129.51 47.016 126.694 48.168V49.896C129.254 50.024 131.238 50.904 132.646 52.536C134.054 54.168 134.758 56.328 134.758 59.016V81H122.086V60.84C122.086 59.304 121.686 58.056 120.886 57.096C120.086 56.136 118.758 55.656 116.902 55.656H99.238V81H86.566ZM99.238 44.136H114.406C117.414 44.136 119.766 43.32 121.462 41.688C123.158 40.056 124.006 37.896 124.006 35.208V34.248C124.006 31.56 123.174 29.4 121.51 27.768C119.846 26.136 117.478 25.32 114.406 25.32H99.238V44.136Z" fill="black"/>
<path d="M130.642 86.344C128.05 86.344 125.874 85.4886 124.114 83.7778C122.354 82.0669 121.474 79.8749 121.474 77.2018C121.474 74.5286 122.354 72.344 124.114 70.648C125.874 68.952 128.05 68.104 130.642 68.104C133.234 68.104 135.394 68.9594 137.122 70.6702C138.85 72.3811 139.714 74.5731 139.714 77.2462C139.714 79.9194 138.85 82.104 137.122 83.8C135.394 85.496 133.234 86.344 130.642 86.344Z" fill="#2563EB"/>
<rect x="184.11" y="24" width="1" height="48" fill="#E5E5E5"/>
<path d="M236.062 19.6H243.982V62.8H257.014V70H236.062V19.6ZM262.63 19.6H284.23V26.8H270.55V40.12H281.422V47.32H270.55V62.8H284.23V70H262.63V19.6ZM297.694 44.224L288.982 19.6H297.334L302.662 35.872H302.806L308.278 19.6H315.766L307.054 44.224L316.198 70H307.846L302.086 52.432H301.942L296.038 70H288.55L297.694 44.224ZM350.758 19.6H372.358V26.8H358.678V40.12H369.55V47.32H358.678V62.8H372.358V70H350.758V19.6ZM389.854 70.72C386.062 70.72 383.17 69.64 381.178 67.48C379.186 65.32 378.19 62.272 378.19 58.336V31.264C378.19 27.328 379.186 24.28 381.178 22.12C383.17 19.96 386.062 18.88 389.854 18.88C393.646 18.88 396.538 19.96 398.53 22.12C400.522 24.28 401.518 27.328 401.518 31.264V36.592H394.03V30.76C394.03 27.64 392.71 26.08 390.07 26.08C387.43 26.08 386.11 27.64 386.11 30.76V58.912C386.11 61.984 387.43 63.52 390.07 63.52C392.71 63.52 394.03 61.984 394.03 58.912V51.208H401.518V58.336C401.518 62.272 400.522 65.32 398.53 67.48C396.538 69.64 393.646 70.72 389.854 70.72ZM408.07 19.6H415.99V62.8H429.022V70H408.07V19.6ZM441.046 19.6H451.774L459.982 70H452.062L450.622 59.992V60.136H441.622L440.182 70H432.838L441.046 19.6ZM449.686 53.296L446.158 28.384H446.014L442.558 53.296H449.686ZM465.598 19.6H476.902L481.942 55.672H482.086L487.126 19.6H498.43V70H490.942V31.84H490.798L485.038 70H478.414L472.654 31.84H472.51V70H465.598V19.6ZM512.254 19.6H522.982L531.19 70H523.27L521.83 59.992V60.136H512.83L511.39 70H504.046L512.254 19.6ZM520.894 53.296L517.366 28.384H517.222L513.766 53.296H520.894Z" fill="#0A0A0A"/>
<path d="M319.942 19.6H331.678C335.758 19.6 338.734 20.548 340.606 22.444C342.478 24.34 343.414 27.256 343.414 31.192V34.288C343.414 39.52 341.686 42.832 338.23 44.224V44.368C340.15 44.944 341.506 46.12 342.298 47.896C343.09 49.672 343.486 52.048 343.486 55.024V63.88C343.486 65.32 343.534 66.484 343.63 67.372C343.726 68.26 343.966 69.136 344.35 70H336.286C335.998 69.184 335.806 68.416 335.71 67.696C335.614 66.976 335.566 65.68 335.566 63.808V54.592C335.566 52.288 335.194 50.68 334.45 49.768C333.706 48.856 332.422 48.4 330.598 48.4H327.862V70H319.942V19.6ZM330.742 41.2C332.326 41.2 333.514 40.792 334.306 39.976C335.098 39.16 335.494 37.792 335.494 35.872V31.984C335.494 30.16 335.17 28.84 334.522 28.024C333.874 27.208 332.854 26.8 331.462 26.8H327.862V41.2H330.742Z" fill="#2563EB"/>
</svg>
