<svg width="303" height="72" viewBox="0 0 303 72" fill="none" xmlns="http://www.w3.org/2000/svg">
<path d="M2.952 7.6H10.872V50.8H23.904V58H2.952V7.6ZM29.502 7.6H51.102V14.8H37.422V28.12H48.294V35.32H37.422V50.8H51.102V58H29.502V7.6ZM64.5829 32.224L55.8709 7.6H64.2229L69.5509 23.872H69.6949L75.1669 7.6H82.6549L73.9429 32.224L83.0869 58H74.7349L68.9749 40.432H68.8309L62.9269 58H55.4389L64.5829 32.224ZM117.688 7.6H139.288V14.8H125.608V28.12H136.48V35.32H125.608V50.8H139.288V58H117.688V7.6ZM156.804 58.72C153.012 58.72 150.108 57.64 148.092 55.48C146.124 53.32 145.14 50.272 145.14 46.336V19.264C145.14 15.328 146.124 12.28 148.092 10.12C150.108 7.96 153.012 6.88 156.804 6.88C160.596 6.88 163.476 7.96 165.444 10.12C167.46 12.28 168.468 15.328 168.468 19.264V24.592H160.98V18.76C160.98 15.64 159.66 14.08 157.02 14.08C154.38 14.08 153.06 15.64 153.06 18.76V46.912C153.06 49.984 154.38 51.52 157.02 51.52C159.66 51.52 160.98 49.984 160.98 46.912V39.208H168.468V46.336C168.468 50.272 167.46 53.32 165.444 55.48C163.476 57.64 160.596 58.72 156.804 58.72ZM175.007 7.6H182.927V50.8H195.959V58H175.007V7.6ZM207.958 7.6H218.686L226.894 58H218.974L217.534 47.992V48.136H208.534L207.094 58H199.75L207.958 7.6ZM216.598 41.296L213.07 16.384H212.926L209.47 41.296H216.598ZM232.536 7.6H243.84L248.88 43.672H249.024L254.064 7.6H265.368V58H257.88V19.84H257.736L251.976 58H245.352L239.592 19.84H239.448V58H232.536V7.6ZM279.199 7.6H289.927L298.135 58H290.215L288.775 47.992V48.136H279.775L278.335 58H270.991L279.199 7.6ZM287.839 41.296L284.311 16.384H284.167L280.711 41.296H287.839Z" fill="#0A0A0A"/>
<path d="M88.6489 7.6H100.385C104.465 7.6 107.441 8.56 109.313 10.48C111.185 12.352 112.121 15.256 112.121 19.192V22.288C112.121 27.52 110.393 30.832 106.937 32.224V32.368C108.857 32.944 110.201 34.12 110.969 35.896C111.785 37.672 112.193 40.048 112.193 43.024V51.88C112.193 53.32 112.241 54.496 112.337 55.408C112.433 56.272 112.673 57.136 113.057 58H104.993C104.705 57.184 104.513 56.416 104.417 55.696C104.321 54.976 104.273 53.68 104.273 51.808V42.592C104.273 40.288 103.889 38.68 103.121 37.768C102.401 36.856 101.129 36.4 99.3049 36.4H96.5689V58H88.6489V7.6ZM99.4489 29.2C101.033 29.2 102.209 28.792 102.977 27.976C103.793 27.16 104.201 25.792 104.201 23.872V19.984C104.201 18.16 103.865 16.84 103.193 16.024C102.569 15.208 101.561 14.8 100.169 14.8H96.5689V29.2H99.4489Z" fill="#2563EB"/>
</svg>
