<?xml version="1.0" encoding="UTF-8"?>
<svg width="1200" height="630" viewBox="0 0 1200 630" xmlns="http://www.w3.org/2000/svg">
  <defs>
    <linearGradient id="bg" x1="0%" y1="0%" x2="100%" y2="100%">
      <stop offset="0%" style="stop-color:#09090e"/>
      <stop offset="100%" style="stop-color:#0f0f18"/>
    </linearGradient>
    <linearGradient id="acc" x1="0%" y1="0%" x2="100%" y2="100%">
      <stop offset="0%" style="stop-color:#5b72ff"/>
      <stop offset="100%" style="stop-color:#38d9ff"/>
    </linearGradient>
  </defs>
  <rect width="1200" height="630" fill="url(#bg)"/>
  <pattern id="dots" x="0" y="0" width="40" height="40" patternUnits="userSpaceOnUse">
    <circle cx="1" cy="1" r="1" fill="rgba(255,255,255,0.025)"/>
  </pattern>
  <rect width="1200" height="630" fill="url(#dots)"/>
  
  <!-- Company icon -->
  <rect x="480" y="120" width="240" height="180" rx="10" fill="rgba(22,22,32,0.95)" stroke="rgba(255,255,255,0.07)" stroke-width="1"/>
  <!-- Windows -->
  <rect x="500" y="145" width="36" height="30" rx="4" fill="rgba(91,114,255,0.1)" stroke="rgba(91,114,255,0.15)" stroke-width="1"/><rect x="552" y="145" width="36" height="30" rx="4" fill="rgba(91,114,255,0.1)" stroke="rgba(91,114,255,0.15)" stroke-width="1"/><rect x="604" y="145" width="36" height="30" rx="4" fill="rgba(91,114,255,0.1)" stroke="rgba(91,114,255,0.15)" stroke-width="1"/><rect x="500" y="193" width="36" height="30" rx="4" fill="rgba(91,114,255,0.1)" stroke="rgba(91,114,255,0.15)" stroke-width="1"/><rect x="552" y="193" width="36" height="30" rx="4" fill="rgba(91,114,255,0.1)" stroke="rgba(91,114,255,0.15)" stroke-width="1"/><rect x="604" y="193" width="36" height="30" rx="4" fill="rgba(91,114,255,0.1)" stroke="rgba(91,114,255,0.15)" stroke-width="1"/><rect x="500" y="241" width="36" height="30" rx="4" fill="rgba(91,114,255,0.1)" stroke="rgba(91,114,255,0.15)" stroke-width="1"/><rect x="604" y="241" width="36" height="30" rx="4" fill="rgba(91,114,255,0.1)" stroke="rgba(91,114,255,0.15)" stroke-width="1"/>
  <!-- Door -->
  <rect x="576" y="245" width="48" height="55" rx="4" fill="rgba(91,114,255,0.08)" stroke="rgba(91,114,255,0.2)" stroke-width="1"/>
  <!-- Arrow -->
  <path d="M600 310 L600 370" stroke="#ff5264" stroke-width="3" stroke-dasharray="8,4"/>
  <polygon points="590,370 600,390 610,370" fill="#ff5264"/>
  <!-- Debt badge -->
  <rect x="470" y="392" width="260" height="60" rx="12" fill="rgba(255,82,100,0.1)" stroke="#ff5264" stroke-width="1.5"/>
  <text x="600" y="412" font-family="'Space Grotesk', sans-serif" font-size="13" font-weight="700" fill="#ff5264" text-anchor="middle" dominant-baseline="middle">DEUDA PENDIENTE</text>
  <text x="600" y="435" font-family="'Space Grotesk', sans-serif" font-size="12" font-weight="normal" fill="#9292a8" text-anchor="middle" dominant-baseline="middle">Reclamación formal requerida</text>
  <!-- Stats -->

  <rect x="90" y="250" width="280" height="170" rx="16" fill="rgba(22,22,32,0.95)" stroke="rgba(255,255,255,0.07)" stroke-width="1"/>
  <rect x="90" y="250" width="280" height="5" rx="3" fill="#5b72ff"/>
  <text x="230" y="325" font-family="'Space Grotesk',sans-serif" font-size="52" font-weight="900" fill="#5b72ff" text-anchor="middle" dominant-baseline="middle">15</text>
  <text x="230" y="365" font-family="'Space Grotesk',sans-serif" font-size="14" font-weight="700" fill="#5b72ff" text-anchor="middle" dominant-baseline="middle">DÍAS</text>
  <text x="230" y="395" font-family="'Space Grotesk',sans-serif" font-size="12" font-weight="normal" fill="#9292a8" text-anchor="middle" dominant-baseline="middle">plazo para responder burofax</text>

  <rect x="820" y="250" width="280" height="170" rx="16" fill="rgba(22,22,32,0.95)" stroke="rgba(255,255,255,0.07)" stroke-width="1"/>
  <rect x="820" y="250" width="280" height="5" rx="3" fill="#00d48a"/>
  <text x="960" y="325" font-family="'Space Grotesk',sans-serif" font-size="52" font-weight="900" fill="#00d48a" text-anchor="middle" dominant-baseline="middle">85%</text>
  <text x="960" y="365" font-family="'Space Grotesk',sans-serif" font-size="14" font-weight="700" fill="#00d48a" text-anchor="middle" dominant-baseline="middle"></text>
  <text x="960" y="395" font-family="'Space Grotesk',sans-serif" font-size="12" font-weight="normal" fill="#9292a8" text-anchor="middle" dominant-baseline="middle">se cobran sin ir a juicio</text>
<text x="600" y="555" font-family="'Space Grotesk', sans-serif" font-size="22" font-weight="700" fill="#eeeef2" text-anchor="middle" dominant-baseline="middle">Cómo Reclamar una Deuda a una Empresa</text><text x="600" y="590" font-family="'Space Grotesk', sans-serif" font-size="14" font-weight="normal" fill="#9292a8" text-anchor="middle" dominant-baseline="middle">Pasos previos al proceso judicial</text>
</svg>